PathFileType   4   (X/Y/Z)
DataRate	CameraRate	NumFrames	NumMarkers	Units	OrigDataRate	OrigDataStartFrame	OrigNumFrames
120.0	120.0	11	37	mm	120.0	20	156
Frame#	Time	midhip	hip_r	hip_l	knee_r	knee_l	ankle_r	ankle_l	midasis	asis_r	asis_l	psis_r	psis_l	epicondLat_r	epicondLat_l	epicondMed_r	epicondMed_l	malleolusLat_r	malleolusLat_l	malleolusMedv_r	malleolusMedv_l	neck	subclavicle_r	subclavicle_l	sternalnotch	xyphoidprocess	thighwand_r	thighwand_l	upperleg1_r	upperleg1_l	upperleg2_r	upperleg2_l	shankwand_r	shankwand_l	lowerleg1_r	lowerleg1_l	toe_r	toe_l
 	 	X1	Y1	Z1	X2	Y2	Z2	X3	Y3	Z3	X4	Y4	Z4	X5	Y5	Z5	X6	Y6	Z6	X7	Y7	Z7	X8	Y8	Z8	X9	Y9	Z9	X10	Y10	Z10	X11	Y11	Z11	X12	Y12	Z12	X13	Y13	Z13	X14	Y14	Z14	X15	Y15	Z15	X16	Y16	Z16	X17	Y17	Z17	X18	Y18	Z18	X19	Y19	Z19	X20	Y20	Z20	X21	Y21	Z21	X22	Y22	Z22	X23	Y23	Z23	X24	Y24	Z24	X25	Y25	Z25	X26	Y26	Z26	X27	Y27	Z27	X28	Y28	Z28	X29	Y29	Z29	X30	Y30	Z30	X31	Y31	Z31	X32	Y32	Z32	X33	Y33	Z33	X34	Y34	Z34	X35	Y35	Z35	X36	Y36	Z36	X37	Y37	Z37

	20	0.37500	-2124.586	903.265	196.616	-2123.824	893.145	244.149	-2119.380	895.639	137.701	-2082.483	477.530	268.002	-2101.057	484.926	128.409	-2328.420	142.009	297.872	-2124.591	68.078	153.967	-2041.880	990.250	196.499	-2046.175	987.840	299.365	-2037.584	992.660	93.634	-2244.095	1017.371	236.090	-2243.604	1021.218	151.126	-2075.514	481.607	326.952	-2092.225	486.650	69.593	-2074.941	480.383	208.916	-2119.883	483.707	173.150	-2333.717	149.180	334.812	-2127.584	65.836	114.645	-2326.436	149.310	265.343	-2119.053	78.391	183.017	-2180.197	1472.385	165.628	-2079.103	1417.854	241.179	-2086.377	1405.701	98.193	-2095.311	1411.911	166.332	-2043.482	1213.734	173.762	-2054.523	583.983	406.011	-1962.343	615.662	129.426	-2036.660	645.301	334.214	-2033.641	673.659	83.106	-2028.420	563.704	314.396	-2041.654	586.682	86.501	-2280.107	213.969	397.233	-2016.136	179.069	151.562	-2259.687	264.342	331.556	-2081.766	229.074	137.094	-2236.958	69.293	293.749	-1995.728	41.523	149.227
	21	0.38333	-2119.954	903.060	196.662	-2118.708	893.497	244.137	-2114.680	895.627	137.664	-2072.999	478.496	267.149	-2098.628	484.792	128.458	-2311.132	137.386	297.017	-2124.571	68.080	154.119	-2036.966	990.450	195.835	-2040.861	988.390	298.794	-2033.071	992.509	92.876	-2238.997	1017.612	236.189	-2238.759	1021.270	151.364	-2065.968	482.539	326.094	-2089.993	486.448	69.611	-2065.883	481.760	207.917	-2118.160	483.951	173.102	-2316.762	144.546	333.909	-2127.563	65.844	114.796	-2308.916	144.212	264.694	-2119.023	78.382	183.118	-2174.603	1472.618	165.177	-2073.463	1417.847	240.604	-2080.987	1405.715	97.676	-2089.802	1411.941	165.807	-2038.385	1213.654	173.153	-2045.861	584.769	405.403	-1959.561	614.736	128.946	-2028.567	646.456	333.810	-2030.468	673.174	82.896	-2019.771	564.982	313.645	-2039.263	586.247	86.271	-2265.026	210.685	396.303	-2015.526	178.380	151.724	-2245.502	261.286	330.906	-2081.688	228.857	136.955	-2217.077	67.900	294.932	-1995.703	41.481	149.226
	22	0.39167	-2114.536	903.657	196.781	-2113.630	893.810	244.133	-2110.018	895.584	137.639	-2063.493	479.440	266.285	-2096.194	484.646	128.521	-2293.449	132.675	296.028	-2124.549	68.066	154.298	-2032.094	990.614	195.188	-2035.589	988.897	298.258	-2028.599	992.332	92.119	-2233.933	1017.824	236.288	-2233.938	1021.277	151.600	-2056.463	483.442	325.233	-2087.768	486.236	69.642	-2057.160	482.946	207.166	-2115.921	484.104	173.313	-2299.386	139.773	332.884	-2127.536	65.836	114.975	-2291.092	139.189	263.224	-2118.942	78.346	183.242	-2169.152	1472.901	164.632	-2067.853	1417.813	240.027	-2075.547	1405.764	97.108	-2084.280	1411.973	165.248	-2033.209	1213.591	172.445	-2037.334	585.550	404.880	-1956.668	613.795	128.452	-2020.611	647.471	333.409	-2027.250	672.643	82.661	-2011.346	566.242	313.030	-2036.628	585.807	86.129	-2249.540	207.199	395.309	-2014.916	177.674	151.920	-2230.956	257.993	329.556	-2081.228	228.598	136.849	-2197.000	66.498	295.711	-1995.679	41.444	149.228
	23	0.40000	-2109.487	903.870	196.894	-2108.580	894.087	244.125	-2105.380	895.520	137.613	-2053.936	480.365	265.435	-2093.749	484.499	128.605	-2275.396	127.933	294.914	-2124.533	68.045	154.495	-2027.254	990.749	194.555	-2030.354	989.361	297.741	-2024.153	992.137	91.369	-2228.898	1018.011	236.378	-2229.139	1021.246	151.811	-2046.997	484.319	324.396	-2085.539	486.022	69.693	-2048.152	483.920	206.487	-2113.243	484.216	173.739	-2281.602	134.914	331.748	-2127.515	65.821	115.171	-2272.942	134.215	261.747	-2118.808	78.284	183.440	-2163.792	1473.184	164.192	-2062.264	1417.761	239.472	-2070.074	1405.792	96.548	-2078.751	1411.979	164.699	-2027.943	1213.525	171.764	-2028.987	586.321	404.451	-1953.645	612.847	127.953	-2012.853	648.431	333.052	-2024.005	672.137	82.427	-2002.931	567.397	312.496	-2033.805	585.411	86.063	-2233.638	203.548	394.267	-2014.317	176.959	152.138	-2216.031	254.580	328.215	-2080.245	228.234	136.956	-2176.739	65.134	296.057	-1995.653	41.410	149.237
	24	0.40833	-2104.557	903.952	196.997	-2103.535	894.326	244.119	-2100.731	895.433	137.591	-2044.345	481.268	264.630	-2091.276	484.347	128.718	-2256.988	123.208	293.685	-2124.535	68.026	154.693	-2022.417	990.855	193.950	-2025.136	989.782	297.247	-2019.698	991.928	90.654	-2223.889	1018.170	236.450	-2224.357	1021.182	151.983	-2037.554	485.170	323.613	-2083.297	485.802	69.773	-2039.078	484.812	205.965	-2110.634	484.267	174.116	-2263.424	130.018	330.511	-2127.513	65.811	115.367	-2254.445	129.315	260.611	-2118.741	78.191	183.627	-2158.284	1473.342	163.810	-2056.694	1417.666	238.979	-2064.626	1405.756	96.026	-2073.244	1411.935	164.201	-2022.749	1213.398	171.160	-2020.757	587.086	404.099	-1950.558	611.893	127.445	-2005.179	649.453	332.784	-2020.848	671.622	82.207	-1994.552	568.487	312.086	-2031.094	584.979	85.959	-2217.331	199.780	393.195	-2013.735	176.236	152.358	-2200.871	251.191	327.252	-2079.313	227.888	137.125	-2156.315	63.852	295.942	-1995.621	41.378	149.257
	25	0.41667	-2099.580	904.073	197.082	-2098.479	894.526	244.126	-2096.058	895.324	137.586	-2034.739	482.128	263.925	-2088.775	484.178	128.856	-2238.261	118.550	292.389	-2124.546	68.017	154.878	-2017.571	990.932	193.385	-2019.921	990.158	296.785	-2015.221	991.706	89.986	-2218.909	1018.293	236.504	-2219.592	1021.085	152.111	-2028.119	485.984	322.930	-2081.046	485.568	69.877	-2030.420	485.812	205.546	-2108.089	484.363	174.472	-2244.887	125.143	329.221	-2127.529	65.814	115.553	-2235.763	124.650	259.360	-2118.732	78.104	183.798	-2152.701	1473.392	163.416	-2051.130	1417.507	238.583	-2059.210	1405.646	95.533	-2067.756	1411.825	163.767	-2017.620	1213.193	170.625	-2012.579	587.853	403.824	-1947.420	610.931	126.908	-1997.535	650.439	332.613	-2017.610	671.065	81.972	-1986.364	569.635	311.769	-2028.374	584.541	85.834	-2200.637	195.952	392.118	-2013.165	175.496	152.555	-2185.536	247.855	326.269	-2078.449	227.549	137.250	-2135.741	62.673	295.359	-1995.586	41.350	149.289
	26	0.42500	-2094.641	904.135	197.144	-2093.426	894.683	244.132	-2091.368	895.191	137.583	-2025.131	482.922	263.371	-2086.253	483.992	129.005	-2219.264	114.017	291.085	-2124.551	68.012	155.045	-2012.728	990.980	192.855	-2014.728	990.486	296.342	-2010.729	991.474	89.368	-2213.953	1018.369	236.553	-2214.840	1020.956	152.204	-2018.698	486.747	322.399	-2078.796	485.316	69.989	-2021.984	486.874	205.126	-2105.596	484.432	174.742	-2226.032	120.348	327.938	-2127.552	65.827	115.720	-2216.945	120.217	258.019	-2118.847	78.070	183.943	-2147.183	1473.435	163.083	-2045.582	1417.285	238.295	-2053.814	1405.469	95.044	-2062.287	1411.652	163.389	-2012.548	1212.916	170.144	-2004.454	588.622	403.640	-1944.168	609.985	126.329	-1989.896	651.354	332.482	-2014.343	670.504	81.757	-1978.279	570.807	311.478	-2025.695	584.077	85.660	-2183.583	192.121	391.037	-2012.612	174.762	152.706	-2169.980	244.556	325.271	-2077.536	227.292	137.324	-2115.032	61.618	294.327	-1995.554	41.328	149.330
	27	0.43333	-2089.742	904.130	197.179	-2088.387	894.798	244.129	-2086.654	895.041	137.574	-2015.550	483.663	262.951	-2083.731	483.794	129.148	-2200.025	109.657	289.760	-2124.544	68.011	155.190	-2007.886	991.000	192.366	-2009.569	990.764	295.916	-2006.202	991.237	88.816	-2209.015	1018.401	236.593	-2210.091	1020.802	152.264	-2009.309	487.472	322.000	-2076.550	485.055	70.096	-2013.419	487.801	204.857	-2102.866	484.352	175.114	-2206.890	115.687	326.645	-2127.575	65.846	115.866	-2197.877	115.934	256.721	-2119.112	78.065	184.050	-2141.653	1473.441	162.780	-2040.107	1416.976	238.061	-2048.439	1405.245	94.623	-2056.862	1411.419	163.066	-2007.619	1212.555	169.690	-1996.377	589.394	403.534	-1940.801	609.063	125.729	-1982.390	652.322	332.435	-2011.164	669.983	81.611	-1970.192	571.883	311.279	-2023.023	583.550	85.529	-2166.203	188.342	389.938	-2012.069	174.071	152.805	-2154.232	241.335	324.305	-2076.589	227.056	137.455	-2094.206	60.717	292.880	-1995.534	41.307	149.367
	28	0.44167	-2084.838	904.103	197.184	-2083.359	894.877	244.120	-2081.913	894.884	137.560	-2006.019	484.382	262.609	-2081.229	483.593	129.268	-2180.582	105.505	288.383	-2124.533	68.022	155.314	-2003.040	990.999	191.925	-2004.446	990.993	295.518	-2001.635	991.005	88.333	-2204.080	1018.399	236.615	-2205.329	1020.634	152.289	-1999.971	488.182	321.679	-2074.302	484.796	70.184	-2005.001	488.627	204.709	-2099.920	484.276	175.630	-2187.496	111.203	325.311	-2127.589	65.875	115.991	-2178.742	111.926	255.435	-2119.266	78.016	184.157	-2136.125	1473.362	162.480	-2034.610	1416.561	237.846	-2043.097	1404.963	94.253	-2051.444	1411.106	162.784	-2002.709	1212.110	169.197	-1988.347	590.178	403.500	-1937.355	608.157	125.159	-1975.030	653.316	332.386	-2007.938	669.462	81.461	-1962.211	572.914	311.102	-2020.230	583.037	85.463	-2148.530	184.677	388.814	-2011.492	173.420	152.893	-2138.317	238.236	323.383	-2075.668	226.727	137.674	-2073.270	60.002	291.056	-1995.527	41.285	149.395
	29	0.45000	-2079.772	904.209	197.168	-2078.346	894.924	244.109	-2077.153	894.720	137.546	-1996.533	485.094	262.312	-2078.746	483.388	129.362	-2160.981	101.594	286.961	-2124.527	68.047	155.427	-1998.194	990.977	191.534	-1999.354	991.176	295.152	-1997.033	990.779	87.916	-2199.141	1018.365	236.626	-2200.545	1020.454	152.282	-1990.685	488.886	321.402	-2072.036	484.539	70.253	-1996.761	489.437	204.727	-2097.024	484.114	175.886	-2167.902	106.939	323.942	-2127.588	65.917	116.104	-2159.853	108.348	254.082	-2119.226	77.966	184.274	-2130.629	1473.273	162.208	-2029.040	1416.073	237.727	-2037.790	1404.659	93.799	-2046.009	1410.747	162.516	-1997.795	1211.614	168.598	-1980.371	590.977	403.530	-1933.869	607.263	124.663	-1967.753	654.347	332.365	-2004.680	668.882	81.316	-1954.349	574.023	311.018	-2017.378	582.578	85.317	-2130.621	181.171	387.661	-2010.912	172.790	153.017	-2122.268	235.293	322.492	-2074.747	226.387	137.888	-2052.249	59.500	288.919	-1995.530	41.271	149.405
	30	0.45833	-2074.517	904.471	197.134	-2073.349	894.941	244.106	-2072.379	894.542	137.541	-1987.095	485.802	262.046	-2076.259	483.177	129.443	-2141.257	97.952	285.506	-2124.511	68.082	155.541	-1993.346	990.930	191.187	-1994.289	991.318	294.814	-1992.402	990.542	87.560	-2194.192	1018.298	236.629	-2195.734	1020.262	152.252	-1981.451	489.583	321.157	-2069.720	484.280	70.313	-1988.172	490.279	204.804	-2094.190	483.943	175.976	-2148.155	102.934	322.541	-2127.558	65.964	116.216	-2141.016	105.109	252.697	-2119.144	77.978	184.386	-2125.137	1473.183	162.017	-2023.479	1415.529	237.759	-2032.412	1404.333	93.338	-2040.542	1410.352	162.314	-1992.863	1211.079	168.034	-1972.453	591.787	403.607	-1930.381	606.360	124.269	-1960.559	655.426	332.489	-2001.373	668.385	81.283	-1946.412	575.186	311.069	-2014.499	582.188	85.180	-2112.553	177.861	386.468	-2010.382	172.181	153.185	-2106.108	232.560	321.560	-2073.839	226.103	137.987	-2031.185	59.229	286.548	-1995.542	41.285	149.386
